<?xml version="1.0" standalone="no"?>
<!DOCTYPE svg PUBLIC "-//W3C//DTD SVG 20010904//EN"
        "http://www.w3.org/TR/2001/REC-SVG-20010904/DTD/svg10.dtd">
<svg version="1.0" xmlns="http://www.w3.org/2000/svg"
     width="640.000000pt" height="640.000000pt" viewBox="0 0 640.000000 640.000000"
     preserveAspectRatio="xMidYMid meet">

    <g transform="translate(0.000000,640.000000) scale(0.100000,-0.100000)"
       fill="#ffffff" stroke="none">
        <path d="M4053 5843 c-143 -124 -337 -297 -418 -374 -135 -128 -367 -318 -443
-363 -17 -10 -22 -6 -449 351 -199 166 -390 323 -424 348 l-61 45 -607 0 -607
0 -175 -177 c-233 -237 -585 -619 -702 -761 l-27 -34 0 -642 0 -643 26 -38
c38 -57 166 -210 395 -475 112 -129 241 -282 289 -340 103 -126 217 -242 455
-460 99 -91 261 -243 360 -339 99 -97 230 -222 290 -280 61 -58 162 -155 225
-216 189 -181 304 -290 510 -485 107 -101 245 -232 305 -291 175 -169 181
-174 208 -156 61 40 858 752 1087 971 69 65 215 191 325 279 233 187 236 189
425 367 80 75 190 176 245 225 55 48 143 131 196 184 84 86 102 110 157 217
33 66 81 148 106 181 25 34 55 81 67 105 12 24 47 84 79 133 31 50 87 146 125
215 37 68 96 165 130 215 34 49 75 112 90 138 l27 48 -27 197 c-15 108 -47
295 -71 414 -54 269 -104 567 -104 626 0 53 8 44 -454 495 l-318 311 -482 32
c-264 18 -525 35 -578 38 l-96 7 -79 -68z m497 -188 c184 -81 337 -152 338
-156 2 -5 18 -9 36 -9 32 0 536 -215 536 -229 0 -3 -33 -26 -72 -50 -105 -63
-869 -501 -1028 -589 -74 -41 -164 -93 -200 -117 -92 -59 -523 -256 -535 -244
-2 2 46 150 107 329 60 179 168 498 240 710 71 212 141 417 155 457 l25 72 32
-13 c17 -7 182 -80 366 -161z m285 145 c464 -31 421 -24 449 -73 116 -203 215
-381 213 -383 -1 -1 -254 100 -562 226 -605 247 -646 268 -483 256 45 -3 218
-15 383 -26z m-3206 -30 l406 -1 -50 -26 c-135 -71 -915 -373 -962 -373 -19 0
-14 58 22 240 30 155 46 175 134 165 24 -3 227 -5 450 -5z m967 -482 c197
-260 456 -601 575 -758 119 -157 211 -286 204 -288 -23 -5 -169 59 -405 179
-129 65 -291 144 -360 175 -69 30 -204 91 -300 134 -96 43 -249 106 -340 140
-91 34 -210 85 -265 113 -173 88 -207 103 -325 152 -213 86 -336 153 -317 171
3 3 263 102 579 221 315 118 577 219 583 224 5 5 10 9 11 9 1 0 163 -213 360
-472z m1454 438 c0 -2 -24 -73 -54 -157 -97 -275 -203 -577 -330 -939 -82
-235 -129 -356 -139 -358 -10 -2 -18 12 -27 50 -15 63 -70 194 -170 408 -82
176 -100 222 -100 258 0 29 115 142 400 394 295 261 420 363 420 344z m-3099
-234 l-16 -163 -30 -18 c-50 -30 -503 -271 -510 -271 -3 0 124 139 282 309
158 170 289 309 289 308 1 -1 -6 -75 -15 -165z m4909 -309 c0 -19 -7 -17 -62
18 -28 16 -73 39 -100 50 -28 11 -59 26 -69 33 -26 18 -64 72 -92 132 -13 27
-43 78 -66 112 -85 124 -30 86 180 -124 115 -115 209 -214 209 -221z m-3111
170 c322 -259 378 -313 429 -411 22 -42 50 -108 62 -147 13 -38 47 -123 77
-187 52 -114 88 -226 77 -237 -9 -9 -141 162 -344 449 -69 96 -190 254 -271
350 -153 184 -289 359 -289 372 0 4 3 8 6 8 4 0 117 -89 253 -197z m-1658
-152 c79 -28 136 -55 282 -133 72 -39 176 -90 232 -113 55 -23 181 -83 280
-132 99 -50 227 -108 285 -129 58 -21 160 -66 227 -101 68 -34 174 -80 237
-103 206 -73 626 -269 626 -293 0 -5 -24 -6 -57 -3 -32 3 -224 20 -428 36
-203 17 -476 39 -605 50 -129 11 -357 29 -507 42 l-272 22 -177 420 c-175 415
-191 456 -182 456 3 0 29 -9 59 -19z m-270 -109 c-16 -45 -61 -138 -99 -207
-39 -70 -89 -180 -113 -248 -39 -109 -370 -797 -384 -797 -3 0 -5 222 -4 494
0 450 2 496 17 509 9 8 150 94 312 191 241 143 296 172 298 157 2 -10 -10 -54
-27 -99z m4743 76 c3 -13 36 -138 72 -278 37 -140 88 -338 115 -440 27 -101
45 -188 41 -192 -6 -6 -172 -15 -677 -33 -82 -3 -328 -12 -545 -20 -217 -9
-485 -18 -595 -20 -110 -3 -213 -8 -230 -10 l-30 -4 28 22 c56 44 588 347
1137 647 221 122 659 349 671 350 4 0 9 -10 13 -22z m-4543 -135 c34 -82 111
-263 171 -403 67 -157 106 -260 101 -267 -9 -15 -996 -633 -1001 -628 -3 3
482 1105 602 1368 20 44 42 77 50 77 9 0 38 -55 77 -147z m4922 14 c31 -14 37
-20 32 -39 -3 -13 -28 -147 -55 -298 -52 -283 -57 -306 -65 -298 -5 5 -205
733 -205 747 0 8 80 -22 293 -112z m121 -439 c42 -212 108 -638 99 -647 -6 -8
-181 170 -214 216 -45 64 -41 146 16 369 25 96 45 191 46 212 l1 37 14 -32 c7
-18 25 -88 38 -155z m-4273 -358 c1150 -116 1505 -150 1579 -153 78 -3 85 -4
82 -22 -6 -34 -410 -1376 -416 -1382 -18 -18 -200 154 -506 478 -90 95 -322
336 -516 534 -468 480 -555 575 -526 575 5 0 141 -13 303 -30z m120 -537 c947
-951 1021 -1028 995 -1031 -35 -5 -147 24 -271 68 -136 49 -514 146 -818 211
-286 61 -373 84 -467 124 -41 18 -141 48 -222 66 -138 32 -148 36 -148 57 0
63 239 712 352 954 22 48 41 88 42 88 1 0 243 -242 537 -537z m-631 509 c0
-10 -151 -381 -189 -467 -15 -33 -55 -145 -89 -250 -62 -191 -93 -259 -123
-278 -13 -8 -53 12 -190 100 -217 137 -310 193 -376 227 -31 15 -53 33 -53 42
0 28 59 72 156 119 52 25 128 67 169 95 41 28 107 67 147 87 40 20 151 90 245
155 220 153 303 199 303 170z m4410 -61 c0 -35 -373 -250 -1013 -585 -177 -92
-420 -230 -545 -308 -125 -78 -283 -171 -352 -207 -69 -35 -207 -116 -308
-179 -171 -106 -331 -192 -357 -192 -7 0 -3 24 11 68 13 37 91 267 174 512 83
245 171 524 196 620 25 96 52 185 59 196 13 21 23 22 282 28 147 4 295 9 328
11 33 2 182 7 330 11 149 3 446 12 660 19 526 16 535 16 535 6z m333 -171 c68
-71 137 -148 152 -170 l28 -40 -70 -92 c-64 -85 -150 -221 -386 -603 -95 -154
-137 -215 -137 -197 0 13 80 375 175 797 36 160 73 323 82 363 9 39 19 72 24
72 4 0 63 -58 132 -130z m-336 38 c-31 -54 -231 -302 -412 -513 -75 -88 -177
-212 -226 -276 -49 -64 -107 -131 -130 -150 -22 -18 -93 -104 -156 -192 -63
-87 -150 -199 -192 -250 -43 -51 -112 -139 -153 -197 -42 -58 -111 -143 -153
-190 -43 -47 -135 -161 -205 -255 -172 -229 -620 -765 -639 -765 -8 0 -15 23
-175 630 -80 303 -168 714 -155 723 2 2 69 38 148 81 79 43 203 117 275 165
160 107 437 269 538 315 41 19 126 65 189 103 63 38 159 93 214 122 54 29 306
170 559 313 528 299 689 388 695 383 2 -2 -8 -23 -22 -47z m68 -126 c-9 -42
-41 -167 -70 -277 -69 -256 -89 -346 -126 -574 -57 -355 -82 -403 -287 -548
-75 -53 -184 -133 -242 -178 -58 -44 -150 -110 -205 -145 -55 -35 -167 -116
-250 -180 -82 -64 -179 -136 -215 -160 -133 -87 -190 -127 -405 -285 -241
-177 -333 -240 -340 -234 -6 7 133 187 295 380 82 97 221 272 311 390 223 294
326 421 469 579 233 257 438 509 577 711 44 64 112 158 150 210 99 132 346
414 351 400 2 -6 -4 -46 -13 -89z m-5298 -496 c80 -43 357 -218 400 -253 20
-17 22 -31 30 -176 5 -101 5 -157 -2 -157 -28 0 -467 512 -529 618 -13 22 17
13 101 -32z m654 -331 c46 -8 124 -28 173 -45 89 -30 485 -129 836 -210 190
-43 359 -97 419 -131 26 -15 384 -99 423 -99 18 0 39 41 -352 -700 -62 -118
-119 -219 -127 -223 -7 -4 -13 -25 -13 -45 0 -27 -6 -41 -21 -51 -19 -11 -24
-10 -39 6 -13 13 -1189 1291 -1368 1486 -14 15 -23 27 -20 27 3 0 43 -7 89
-15z m407 -655 c253 -278 458 -507 456 -509 -2 -2 -72 52 -156 119 -84 68
-310 249 -501 403 -192 154 -350 285 -352 291 -2 6 -6 81 -10 166 l-6 155 54
-60 c30 -33 262 -287 515 -565z m1513 -27 c70 -297 255 -1005 270 -1035 19
-37 28 -174 12 -166 -64 32 -131 56 -238 84 -167 44 -198 57 -385 148 -85 42
-161 76 -168 76 -12 0 101 230 258 525 20 39 79 152 130 253 52 100 96 182 99
182 4 0 13 -30 22 -67z m1838 -297 c-300 -270 -1572 -1387 -1575 -1383 -15 15
47 194 99 282 66 114 104 151 255 251 179 118 602 419 848 603 319 239 389
289 398 283 5 -3 -6 -19 -25 -36z m-3027 -189 c26 -24 106 -85 178 -137 286
-206 310 -226 417 -346 103 -116 269 -319 287 -352 14 -24 -32 18 -454 413
-206 193 -398 372 -427 399 -44 40 -64 66 -50 66 2 0 24 -19 49 -43z m917
-586 c172 -64 449 -179 523 -217 27 -13 48 -31 48 -39 0 -8 -18 -60 -40 -116
-23 -56 -50 -139 -60 -186 -21 -88 -44 -143 -60 -143 -14 0 -538 671 -584 748
-12 20 9 15 173 -47z"/>
    </g>
</svg>
